<?xml version="1.0" encoding="UTF-8"?>
<!DOCTYPE svg PUBLIC "-//W3C//DTD SVG 1.1//EN" "http://www.w3.org/Graphics/SVG/1.1/DTD/svg11.dtd">
<!-- Creator: CorelDRAW 2019 (64-Bit) -->
<svg xmlns="http://www.w3.org/2000/svg" xml:space="preserve" width="1181px" height="1181px" version="1.1" style="shape-rendering:geometricPrecision; text-rendering:geometricPrecision; image-rendering:optimizeQuality; fill-rule:evenodd; clip-rule:evenodd"
viewBox="0 0 11810000 11810000"
 xmlns:xlink="http://www.w3.org/1999/xlink"
 xmlns:xodm="http://www.corel.com/coreldraw/odm/2003">
 <defs>
  <style type="text/css">
   <![CDATA[
    .fil1 {fill:#F4A307}
    .fil0 {fill:#004B9B}
   ]]>
  </style>
 </defs>
 <g id="Layer_x0020_1">
  <metadata id="CorelCorpID_0Corel-Layer"/>
  <g id="_2652750049200">
   <path class="fil0" d="M6361500 5329300l324700 0c126900,0 236100,53900 313300,154500 77300,100700 101000,220100 68200,342700l-84000 313600c-80900,301800 -345200,504600 -657700,504600l-324700 100c-126900,0 -236100,-53900 -313400,-154600 -77200,-100600 -101000,-220000 -68100,-342600l84000 -313600c80900,-301900 345200,-504700 657700,-504700zm233400 328900l-163000 0 -152400 0c-112500,0 -207700,73000 -236800,181600l-39500 147300 -42200 157400c-11300,42300 -3100,83400 23500,118200 26700,34700 64400,53300 108100,53300l315400 0c112500,0 207700,-73100 236800,-181700l39400 -147200 42200 -157500c11400,-42300 3200,-83400 -23500,-118200 -26600,-34700 -64300,-53200 -108000,-53200z"/>
   <polygon class="fil0" points="7779000,6033300 7623000,5329300 7286100,5329300 7577800,6644700 7914600,6644700 7838400,6301100 "/>
   <path class="fil1" d="M8889300 5164900l146200 0 -230200 328800 -806000 1151000 -500 0 -96500 -434900 585500 -835900c94600,-135100 236500,-209000 401500,-209000z"/>
   <path class="fil0" d="M9613200 5329200l324700 0c126900,0 236100,53800 313300,154500 77300,100700 101000,220100 68200,342700l-84100 313500c-80900,301900 -345100,504700 -657600,504700l-324700 100c-126900,0 -236100,-53900 -313400,-154600 -77200,-100600 -101000,-220000 -68200,-342600l84100 -313600c80900,-301900 345200,-504700 657700,-504700zm233400 328900l-163000 0 -152400 0c-112600,0 -207700,73000 -236800,181600l-39500 147200 -42200 157500c-11300,42300 -3100,83400 23500,118200 26700,34700 64300,53200 108100,53200l315400 0c112500,0 207600,-73000 236800,-181700l39400 -147200 42200 -157400c11300,-42300 3100,-83400 -23500,-118200 -26600,-34700 -64300,-53200 -108000,-53200z"/>
   <path class="fil0" d="M4479600 6644800l836600 0 88200 -328800 -851200 0 264300 -986600 -340400 0 -260700 972600c-22600,84500 -6200,166900 47100,236300 53200,69400 128500,106500 216100,106500z"/>
   <polygon class="fil0" points="2944700,5329400 3285200,5329400 3137300,5881300 3240700,5794600 3795200,5329300 4306800,5329300 4306800,5329400 3452100,6046600 3954300,6645100 3525000,6645100 3200100,6258000 3076000,6110000 2998700,6398400 2913600,6398400 2869500,6562900 2954700,6562800 2932600,6645100 2592100,6645100 2614200,6562900 2699200,6562900 2743300,6398400 2658200,6398400 "/>
   <polygon class="fil0" points="1476300,5822900 2664200,5740600 2614000,5905100 "/>
   <polygon class="fil1" points="1873000,6151800 2576000,6069600 2532000,6234000 "/>
   <polygon class="fil1" points="2752400,5411700 2708300,5576100 2049300,5493900 "/>
  </g>
 </g>
</svg>
